<svg height="512" viewBox="0 0 30 58" width="512" xmlns="http://www.w3.org/2000/svg"><g id="Page-1" fill="none" fill-rule="evenodd"><g id="029---Hand-Injury" fill-rule="nonzero"><path id="Shape" d="m6 4v8.667 4.333h6v-8.667-4.333z" fill="#bdc3c7"/><path id="Shape" d="m20 13c-.3808256.0020788-.7297741-.2123306-.9-.553-.3864271-.8269365-1.1896623-1.3804038-2.1-1.447-.5522847 0-1-.4477153-1-1 0-.55228475.4477153-1 1-1 1.6698775.0712079 3.1667054 1.0510545 3.9 2.553.1553431.3108588.1381628.6800764-.0453763.9751664-.183539.2950901-.5071168.4737357-.8546237.4718336z" fill="#d1d4d1"/><path id="Shape" d="m30 23v11.82c.0004275.7777804-.1810735 1.5448792-.53 2.24l-2.94 5.88c-.3489265.6951208-.5304275 1.4622196-.53 2.24v10.82c-.0032948 1.1032019-.8967981 1.9967052-2 2h-16c-1.10320187-.0032948-1.9967052-.8967981-2-2v-9.52c.00220044-.9537569-.33851468-1.876527-.96-2.6l-4.08-4.76c-.62148532-.723473-.96220044-1.6462431-.96-2.6v-12.52c0-1.6568542 1.34314575-3 3-3s3 1.3431458 3 3v-9h6v5c0-1.6568542 1.3431458-3 3-3s3 1.3431458 3 3v1c0-1.6568542 1.3431458-3 3-3s3 1.3431458 3 3v2c0-1.6568542 1.3431458-3 3-3s3 1.3431458 3 3z" fill="#fdd7ad"/><path id="Shape" d="m12 6v3l-6 3v-6z" fill="#d1d4d1"/><path id="Shape" d="m12 3v3h-6v-3c0-1.65685425 1.34314575-3 3-3 1.6568542 0 3 1.34314575 3 3z" fill="#fdd7ad"/><path id="Shape" d="m23 33h-4v-4c0-.5522847-.4477153-1-1-1h-2c-.5522847 0-1 .4477153-1 1v4h-4c-.5522847 0-1 .4477153-1 1v2c0 .5522847.4477153 1 1 1h4v4c0 .5522847.4477153 1 1 1h2c.5522847 0 1-.4477153 1-1v-4h4c.5522847 0 1-.4477153 1-1v-2c0-.5522847-.4477153-1-1-1z" fill="#e64c3c"/><g fill="#bdc3c7"><path id="Shape" d="m15 13c-1.6568542 0-3-1.3431458-3-3 0-1.65685425 1.3431458-3 3-3s3 1.34314575 3 3c0 .7956495-.3160705 1.5587112-.8786797 2.1213203-.5626091.5626092-1.3256708.8786797-2.1213203.8786797zm0-4c-.5522847 0-1 .44771525-1 1 0 .5522847.4477153 1 1 1s1-.4477153 1-1c0-.55228475-.4477153-1-1-1z"/><path id="Shape" d="m17 11c-.5522847.0027614-1.0022385-.4427153-1.005-.995-.0027614-.55228474.4427153-1.00223856.995-1.005.9114244-.0704864 1.7158885-.62217339 2.11-1.447.1596977-.31975273.4778505-.53001872.8346134-.5515928.3567628-.02157408.6979349.14882136.895.44700002.1970651.29817865.2200844.67884007.0603866.99859278-.7316004 1.49889062-2.2237716 2.4781999-3.89 2.553z"/></g></g></g></svg>